# xmcd
#
# Track frame offsets:
#	150
#	33507
#	56895
#	93751
#	126381
#	133566
#	156748
#	176469
#	198658
#	221093
#	259430
#	286819
#
# Disc length: 4123 seconds
#
# Revision: 1
# Processed by: cddbd v1.5.2PL0 Copyright (c) Steve Scherf et al.
# Submitted via: audiograbber 1.83.01
#
DISCID=bf10190c
DTITLE=Eagles - Take It Easy - Live In The USA CD06
DYEAR=1900
DGENRE=Rock
TTITLE0=I Can't Tell You Why
TTITLE1=The Girl From Yesterday
TTITLE2=New York Minute
TTITLE3=The Last Resort
TTITLE4=Introductions
TTITLE5=Take It Easy
TTITLE6=One Of These Nights
TTITLE7=In The City
TTITLE8=Heartache Tonight
TTITLE9=Life In The Fast Lane
TTITLE10=Get Over It
TTITLE11=Desperado
EXTD=
EXTT0=
EXTT1=
EXTT2=
EXTT3=
EXTT4=
EXTT5=
EXTT6=
EXTT7=
EXTT8=
EXTT9=
EXTT10=
EXTT11=
PLAYORDER=
